<?xml version="1.0" encoding="UTF-8"?>
<!DOCTYPE svg PUBLIC "-//W3C//DTD SVG 1.1//EN" "http://www.w3.org/Graphics/SVG/1.1/DTD/svg11.dtd">
<!-- Creator: CorelDRAW X7 -->
<svg xmlns="http://www.w3.org/2000/svg" xml:space="preserve" width="40mm" height="40mm" version="1.1" style="shape-rendering:geometricPrecision; text-rendering:geometricPrecision; image-rendering:optimizeQuality; fill-rule:evenodd; clip-rule:evenodd"
viewBox="0 0 4000 4000"
 xmlns:xlink="http://www.w3.org/1999/xlink">
 <defs>
  <style type="text/css">
   <![CDATA[
    .fil0 {fill:#FEFEFE;fill-rule:nonzero}
   ]]>
  </style>
 </defs>
 <g id="Ebene_x0020_1">
  <metadata id="CorelCorpID_0Corel-Layer"/>
  <path class="fil0" d="M0 2576l0 -1152c0,0 30,-1424 1493,-1424l1014 0c0,0 1493,24 1493,1424l0 2576 -2507 0c0,0 -1493,-41 -1493,-1424zm3711 371l0 -238 -289 -68c-10,-33 -22,-65 -37,-95l159 -266 -158 -168 -251 169c-28,-16 -58,-29 -89,-40l-64 -307 -224 0 -64 308c-31,10 -61,23 -89,39l-250 -169 -159 168 159 266c-15,30 -27,62 -37,95l-289 68 0 238 289 68c10,33 22,64 37,95l-159 266 159 168 250 -169c28,15 58,29 89,39l64 308 224 0 64 -308c31,-10 61,-24 89,-39l251 169 158 -168 -159 -266c15,-31 27,-62 37,-95l289 -68zm-841 179c-155,0 -280,-134 -280,-298 0,-165 125,-298 280,-298 155,0 280,133 280,298 0,164 -125,298 -280,298zm-1210 -1414c-143,149 -211,347 -206,546l239 4c-4,-135 41,-269 138,-370 97,-101 225,-149 354,-145l-3 -250c-190,-5 -379,66 -522,215zm-383 -400c-246,256 -364,596 -357,936l239 5c-6,-277 90,-554 289,-762 200,-208 465,-309 731,-302l-3 -250c-328,-7 -654,116 -899,373zm-192 -200c297,-311 692,-461 1087,-451l-2 -235c-454,-11 -906,161 -1246,517 -340,355 -504,825 -496,1297l225 4c-8,-412 136,-823 432,-1132z"/>
 </g>
</svg>
